<svg width="16" height="16" viewBox="0 -8 36 40" xmlns="http://www.w3.org/2000/svg">
  <g id="svgGroup" stroke-linecap="round" fill-rule="evenodd" font-size="9pt" stroke="#6C707E" stroke-width="0.25mm"
     fill="#6C707E">
    <path
      d="M 0 22.192 L 2.656 21.888 L 2.656 2 L 0.032 1.616 L 0.032 0 L 16.48 0 L 16.928 4.976 L 15.104 4.976 L 14.08 1.856 L 6.128 1.664 L 6.128 10.64 L 11.424 10.544 L 11.888 7.904 L 13.664 7.904 L 13.664 15.248 L 11.888 15.248 L 11.44 12.496 L 6.128 12.416 L 6.128 21.984 L 15.056 21.664 L 16.88 17.552 L 18.752 18.112 L 17.776 23.776 L 0 23.776 L 0 22.192 Z"
      id="0"/>
    <path
      d="M 29.456 9.904 L 31.568 7.84 L 23.648 8.064 L 23.04 11.12 L 21.056 11.12 L 21.056 6 L 34.72 6 L 35.344 7.392 L 25.824 19.984 L 23.728 21.984 L 32.192 21.68 L 33.76 18.112 L 35.6 18.336 L 34.864 23.776 L 20.576 23.776 L 19.904 22.352 L 29.456 9.904 Z"
      id="1" transform="translate(0.4,-6)"/>
  </g>
  <rect x="20.6" y="21.25" width="15.3" height="3" fill="#6C707E"/>
</svg>
